#!OML:ASF E:/inclinewalkrobotboard/Project1/Captureday1/Session1/subject1.ASF
:FULLY-SPECIFIED
:DEGREES
88
root 0 0 0 0.4599703491535476 -3.151875651663469 1.2746857793061672
lowerback 11.50388506256277 0.6245913775902532 -0.5526602001321025
upperback -2.777653396072497 0.7857221131979552 0.01699409215406389
thorax -9.448939235465044 0.3507291618644667 0.21178770410917025
lowerneck -9.800660903584212 0.2630003868354809 2.3735326757351647
upperneck 18.54995016212941 1.133027410605655 -5.503094051347763
head 7.446621503188558 0.2738851916233027 -2.0889747016889175
rclavicle 2.1232411989937627E-16 -7.381235292322265E-16
rhumerus 2.5732718315032947 3.432167031786568 -59.56996092624433
rradius 56.188553821874386
rwrist 17.536595902714165
rhand -28.397670112531905 -27.532174234561804
rfingers 7.125019999999986
rthumb -1.765474026278799 -57.77090001277755
lclavicle -8.354188395518159E-16 -1.7605944192246024E-16
lhumerus 3.0569833993075335 -9.594877003189975 59.047874901597496
lradius 55.76077291768514
lwrist -11.264540217891954
lhand -38.855662823825135 -35.96342959353515
lfingers 7.125019999999983
lthumb -11.797042516463012 -6.270030816069898
rfemur -25.36987989594892 1.7707231116550821 19.983623499206587
rtibia 47.81900887218432
rfoot -7.288376105725934 -9.867998399517495
rtoes -1.4398735277064434
lfemur -14.628919467553459 -0.370696085390378 -17.310506667159412
ltibia 42.11113979432426
lfoot -6.182043502662286 -4.670120689705301
ltoes -6.192445754366841
89
root 0 0 0 0.4603976240244072 -3.152311532446911 1.2742116182376415
lowerback 11.504088538221897 0.6247113078320233 -0.5519124357481026
upperback -2.7780676752383187 0.7859956151753232 0.016984753457244484
thorax -9.449502266117625 0.3508556918119797 0.21133140637095005
lowerneck -9.800036870758813 0.2633794643942817 2.3741232897845497
upperneck 18.550144127619664 1.133420906449497 -5.503765130278815
head 7.446577174492255 0.27405922307272124 -2.0892639098114523
rclavicle 2.1254114458261447E-16 -7.372033544393272E-16
rhumerus 2.57355171950217 3.4323608472299227 -59.56976573582914
rradius 56.18855686817014
rwrist 17.53662889304378
rhand -28.39772293754368 -27.5324484216184
rfingers 7.125019999999986
rthumb -1.765456553848746 -57.77083471952424
lclavicle -8.339726289109741E-16 -1.7444262509055381E-16
lhumerus 3.0648231336415783 -9.597138600723294 59.042652163062485
lradius 55.766562802488046
lwrist -11.268306906853052
lhand -38.85819705347579 -35.976027387933264
lfingers 7.125019999999983
lthumb -11.799375954500471 -6.28377020451741
rfemur -25.329948167477085 1.781233853198791 20.003741676708486
rtibia 47.77532158112996
rfoot -7.303979836423612 -9.862157112351438
rtoes -1.4352367562440258
lfemur -14.753182735905465 -0.3377543669287091 -17.241666525852494
ltibia 42.35203801487216
lfoot -6.093005908682661 -4.727187703327887
ltoes -6.218564580342999
90
root 0 0 0 0.46056800372216333 -3.154036446628261 1.2732076967278803
lowerback 11.504676759261992 0.6255869646244003 -0.5498911615281795
upperback -2.778645422215033 0.7873721223783143 0.016667267278717368
thorax -9.450480366983802 0.35146680605677716 0.20987282944507102
lowerneck -9.798670117304493 0.2635504423307524 2.375019840904915
upperneck 18.551608232176747 1.133927960893855 -5.505194061230176
head 7.4468684640315095 0.27421813615748314 -2.0898498046284684
rclavicle 2.1231765870249124E-16 -7.387270297577891E-16
rhumerus 2.5757337751865315 3.4337885451907546 -59.568465606163066
rradius 56.19070974969233
rwrist 17.537786764268198
rhand -28.39845430634879 -27.536044160496555
rfingers 7.125019999999986
rthumb -1.7662609064374815 -57.77490360669092
lclavicle -8.356723668232572E-16 -1.7579787543191119E-16
lhumerus 3.0673304834240653 -9.597794168128235 59.040671730668166
lradius 55.768906508407866
lwrist -11.269367460940542
lhand -38.859114454675954 -35.9805887847797
lfingers 7.125019999999983
lthumb -11.80034602834896 -6.287876567818145
rfemur -25.385175747786967 1.7656255593236316 19.975933378739285
rtibia 47.8458515623707
rfoot -7.276838936517008 -9.868296799094677
rtoes -1.4364782252600885
lfemur -14.84981574946501 -0.29415564312648956 -17.178639115051716
ltibia 42.66080450220459
lfoot -5.985273333538447 -4.817586652113961
ltoes -6.261864610676044
91
root 0 0 0 0.46102585989676026 -3.154810461091579 1.2732539414829394
lowerback 11.505077257090102 0.6259378632685116 -0.5492434126439149
upperback -2.7793040161201374 0.7879098137324552 0.016352984422417727
thorax -9.451454150860949 0.3517051737279423 0.2092025551265827
lowerneck -9.7972308973239 0.2640415531346503 2.375940998922641
upperneck 18.55219639681623 1.1347386070615797 -5.506579674950875
head 7.446824563077498 0.274547934808832 -2.0903670784186503
rclavicle 2.1256798117541122E-16 -7.386424202804313E-16
rhumerus 2.5784418802326172 3.4356778079798715 -59.566881770464136
rradius 56.19320299857912
rwrist 17.538888981171787
rhand -28.39932553606686 -27.54015879978712
rfingers 7.125019999999986
rthumb -1.7670708033789397 -57.779110505985045
lclavicle -8.357190552626361E-16 -1.7543712520697425E-16
lhumerus 3.0731849422892132 -9.599454167983996 59.03663536391373
lradius 55.77341750094287
lwrist -11.272088794702933
lhand -38.861054947160554 -35.990253393482526
lfingers 7.125019999999983
lthumb -11.802196487939057 -6.297987899670204
rfemur -25.447660488471925 1.7493778804658089 19.945053513653775
rtibia 47.912147289608065
rfoot -7.253093224434467 -9.8778684542799
rtoes -1.4433414879307283
lfemur -14.924420757153818 -0.2679306571986684 -17.134782682311332
ltibia 42.846502291610506
lfoot -5.921715541308484 -4.866738599426226
ltoes -6.285772309312618
